<?xml version="1.0" encoding="utf-8"?>
<!-- Svg Vector Icons : http://www.onlinewebfonts.com/icon -->
<!DOCTYPE svg PUBLIC "-//W3C//DTD SVG 1.1//EN" "http://www.w3.org/Graphics/SVG/1.1/DTD/svg11.dtd">
<svg version="1.1" xmlns="http://www.w3.org/2000/svg" xmlns:xlink="http://www.w3.org/1999/xlink" x="0px" y="0px" viewBox="0 0 1000 1000" enable-background="new 0 0 1000 1000" xml:space="preserve">
<metadata> Svg Vector Icons : http://www.onlinewebfonts.com/icon </metadata>
<g><g transform="translate(0.000000,512.000000) scale(0.100000,-0.100000)"><path 
    style="fill: #fff"
	d="M4653,5001.5c-511.2-59.4-1016.6-233.6-1445.5-501.6c-172.3-107.2-440.4-312.1-520.8-400.2l-44-45.9l103.4-101.5l103.4-103.4l160.8,134c419.3,352.3,876.9,574.4,1399.5,679.7c310.2,63.2,865.4,63.2,1177.5,0c298.7-61.3,530.3-139.8,798.4-273.8c844.3-421.2,1441.7-1210,1617.8-2136.6c21.1-114.9,46-310.1,55.5-436.5l15.3-229.7l453.8-976.4c298.7-647.1,451.8-995.6,451.8-1037.7v-63.2h-392.5c-415.5,0-469.1-9.6-505.4-90c-13.4-30.6-21.1-287.2-21.1-796.4c0-846.2-7.7-905.6-130.2-1085.6c-38.3-57.4-113-135.9-166.6-176.1c-183.8-139.8-176.1-137.9-1056.8-145.5l-790.7-5.7v-153.2v-151.3h153.2H6223v-842.4V-4780h153.2h153.2v840.5v840.5l484.4,7.7c436.5,7.6,494,13.4,595.4,49.8c331.2,122.5,583.9,373.3,702.6,695c42.1,118.7,44,145.5,51.7,836.7l5.7,712.2h390.6c245.1,0,407.8,7.7,436.5,21.1c70.8,32.5,90,95.7,90,291v176.1l-457.6,987.9c-453.7,980.3-455.7,989.8-469.1,1148.7c-40.2,509.3-147.4,901.8-356.1,1319.1c-264.2,528.4-689.2,1003.2-1190.9,1328.7C6175.1,4888.5,5376.7,5083.8,4653,5001.5z"/><path 
    style="fill: #fff"
	d="M3973.3,3768.5c-338.9-63.2-620.3-218.3-857.7-467.2l-111.1-116.8h-128.3c-367.6-1.9-740.9-183.8-970.7-474.8c-111-139.8-216.3-352.3-247-505.5c-13.4-65.1-36.4-124.4-51.7-132.1c-15.3-7.7-99.6-47.9-189.5-90c-472.9-225.9-763.9-748.6-693.1-1248.3c65.1-459.5,390.6-846.3,850.1-1010.9c130.2-46,166.6-49.8,557.1-57.4l415.5-7.7V-187v155.1h-369.5c-270,0-400.1,7.7-482.5,28.7C1111.1,150,841.1,801,1134.1,1350.4c68.9,130.2,227.8,283.3,363.8,352.3c51.7,26.8,153.2,61.3,227.8,76.6c162.7,38.3,208.7,84.2,208.7,216.3c0,222.1,97.6,446.1,266.1,616.5c204.9,202.9,419.3,279.5,737.1,260.4L3129,2861l67,80.4c268,314,482.5,463.3,758.2,520.8c725.6,151.3,1388.1-304.4,1491.4-1028.1c17.2-118.7,78.5-168.5,201-168.5c107.2,0,287.2-44,400.2-99.6c122.5-59.3,294.8-227.8,363.8-356.1c294.9-551.4,23-1200.4-564.8-1353.6c-84.2-23-229.7-28.7-631.8-28.7h-522.7V272.5V117.4l570.5,7.7c555.2,7.7,572.5,9.6,708.4,57.4c201,72.8,337,158.9,492,312.1c214.4,216.3,337,465.2,363.8,750.5c57.4,574.4-394.4,1177.5-968.8,1296.1l-116.8,23l-51.7,153.2c-120.6,352.3-331.2,626.1-639.5,827.1C4725.8,3755.1,4335.2,3837.4,3973.3,3768.5z"/><path 
    style="fill: #fff"
	d="M2853.3,1806.1v-153.2h153.2h153.2v153.2v153.2h-153.2h-153.2V1806.1z"/><path 
    style="fill: #fff"
	d="M3466,1806.1v-153.2h153.2h153.2v153.2v153.2h-153.2H3466V1806.1z"/><path 
    style="fill: #fff"
	d="M4078.6,1806.1v-153.2h153.2H4385v153.2v153.2h-153.2h-153.2V1806.1z"/><path 
    style="fill: #fff"
	d="M3533,1157.1c-30.6-19.1-185.7-166.6-344.6-325.5l-287.2-289.1l111-109.1l109.1-111l172.3,172.3L3466,666.9v-984.1c0-698.8,5.7-1005.1,23-1058.8c30.6-105.3,158.9-241.2,273.8-294.8l95.7-46h1030h1028.1v153.2v153.2H4882.8c-1009,0-1033.9,0-1072.1,38.3c-36.4,36.4-38.3,63.2-38.3,1037.7V666.9l172.3-172.3l172.3-172.3l109.1,111l111,109.1l-296.8,298.7c-279.5,279.5-365.7,352.3-425,352.3C3601.9,1193.4,3565.5,1176.2,3533,1157.1z"/><path 
    style="fill: #fff"
	d="M2420.6-801.5L2282.8-859l134-327.4c176.1-436.5,308.2-832.8,371.4-1123.8l53.6-239.3l5.8-1114.3l7.7-1116.2h153.2h155.1l-9.6,1104.7c-9.6,1187-7.7,1177.5-118.7,1615.9c-65.1,262.3-164.7,549.5-327.4,955.4c-78.5,193.4-145.5,354.2-147.4,356.1C2558.5-746,2495.3-769,2420.6-801.5z"/></g></g>
</svg>